arm26_optimize_states
version=1
nRows=17
nColumns=17
inDegrees=yes

# SIMM Motion File Header:
name arm26_optimize_states
datacolumns 17
datarows 17
otherdata 1
range 0.57827640 0.58844383
endheader
time	r_shoulder_elev	r_elbow_flex	r_shoulder_elev_u	r_elbow_flex_u	TRIlong.activation	TRIlong.fiber_length	TRIlat.activation	TRIlat.fiber_length	TRImed.activation	TRImed.fiber_length	BIClong.activation	BIClong.fiber_length	BICshort.activation	BICshort.fiber_length	BRA.activation	BRA.fiber_length
      0.57827640	    -55.71353844	    -45.63278623	    -57.39541804	   -379.51193213	      0.02000000	      0.11325609	      0.02000000	      0.07351289	      0.10000000	      0.06788622	      0.10000000	      0.15385221	      0.02000000	      0.16803190	      0.02000000	      0.07905236
      0.57891186	    -55.74975124	    -45.87402209	    -56.57837845	   -379.72702928	      0.02000000	      0.11334319	      0.02000000	      0.07362328	      0.10000000	      0.06797869	      0.10000000	      0.15379009	      0.02000000	      0.16798163	      0.02000000	      0.07898146
      0.57954733	    -55.78544474	    -46.11539552	    -55.76000387	   -379.94797782	      0.02000000	      0.11343065	      0.02000000	      0.07370031	      0.10000000	      0.06807141	      0.10000000	      0.15372730	      0.02000000	      0.16793047	      0.02000000	      0.07891025
      0.58018279	    -55.82061953	    -46.35690584	    -54.94665185	   -380.15527928	      0.02000000	      0.11351847	      0.02000000	      0.07380713	      0.10000000	      0.06816438	      0.10000000	      0.15366385	      0.02000000	      0.16787842	      0.02000000	      0.07883874
      0.58081825	    -55.85527759	    -46.59854802	    -54.13257274	   -380.36653763	      0.02000000	      0.11360663	      0.02000000	      0.07388793	      0.10000000	      0.06825760	      0.10000000	      0.15359975	      0.02000000	      0.16782550	      0.02000000	      0.07876692
      0.58145372	    -55.88941943	    -46.84032161	    -53.32319595	   -380.56507609	      0.02000000	      0.11369514	      0.02000000	      0.07399686	      0.10000000	      0.06835105	      0.10000000	      0.15353498	      0.02000000	      0.16777168	      0.02000000	      0.07869480
      0.58208918	    -55.92304701	    -47.08222171	    -52.51285888	   -380.76825656	      0.02000000	      0.11378398	      0.02000000	      0.07407662	      0.10000000	      0.06844474	      0.10000000	      0.15346954	      0.02000000	      0.16771699	      0.02000000	      0.07862237
      0.58272465	    -55.95616084	    -47.32424781	    -51.70746146	   -380.95793234	      0.02000000	      0.11387315	      0.02000000	      0.07418674	      0.10000000	      0.06853865	      0.10000000	      0.15340345	      0.02000000	      0.16766142	      0.02000000	      0.07854965
      0.58336011	    -55.98876290	    -47.56639485	    -50.90100973	   -381.15250634	      0.02000000	      0.11396264	      0.02000000	      0.07426621	      0.10000000	      0.06863279	      0.10000000	      0.15333671	      0.02000000	      0.16760497	      0.02000000	      0.07847663
      0.58399558	    -56.02085371	    -47.80866228	    -50.09964115	   -381.33307451	      0.02000000	      0.11405244	      0.02000000	      0.07437757	      0.10000000	      0.06872714	      0.10000000	      0.15326930	      0.02000000	      0.16754765	      0.02000000	      0.07840331
      0.58463104	    -56.05243530	    -48.05104495	    -49.29711925	   -381.51881083	      0.02000000	      0.11414256	      0.02000000	      0.07445666	      0.10000000	      0.06882171	      0.10000000	      0.15320124	      0.02000000	      0.16748945	      0.02000000	      0.07832970
      0.58526651	    -56.08350818	    -48.29354222	    -48.49982675	   -381.69002747	      0.02000000	      0.11423298	      0.02000000	      0.07456920	      0.10000000	      0.06891648	      0.10000000	      0.15313253	      0.02000000	      0.16743037	      0.02000000	      0.07825579
      0.58590197	    -56.11407439	    -48.53614886	    -47.70129130	   -381.86665154	      0.02000000	      0.11432369	      0.02000000	      0.07464792	      0.10000000	      0.06901145	      0.10000000	      0.15306316	      0.02000000	      0.16737043	      0.02000000	      0.07818159
      0.58653744	    -56.14413448	    -48.77886417	    -46.90812387	   -382.02826108	      0.02000000	      0.11441469	      0.02000000	      0.07476161	      0.10000000	      0.06910661	      0.10000000	      0.15299314	      0.02000000	      0.16730961	      0.02000000	      0.07810709
      0.58717290	    -56.17369049	    -49.02168281	    -46.11363103	   -382.19549319	      0.02000000	      0.11450598	      0.02000000	      0.07483997	      0.10000000	      0.06920197	      0.10000000	      0.15292246	      0.02000000	      0.16724793	      0.02000000	      0.07803231
      0.58780837	    -56.20274299	    -49.26460399	    -45.32463795	   -382.34723268	      0.02000000	      0.11459755	      0.02000000	      0.07495475	      0.10000000	      0.06929751	      0.10000000	      0.15285114	      0.02000000	      0.16718538	      0.02000000	      0.07795724
      0.58844383	    -56.23129404	    -49.50762230	    -44.53424404	   -382.50478588	      0.02000000	      0.11468939	      0.02000000	      0.07503274	      0.10000000	      0.06939323	      0.10000000	      0.15277917	      0.02000000	      0.16712196	      0.02000000	      0.07788188
